<svg xmlns="http://www.w3.org/2000/svg" fill="none" viewBox="0 0 139 31" height="31" width="139">
<path fill="#DBDBDB" d="M53.4672 20.8989V9.10112H54.5449L63.0784 19.3483H62.513V9.10112H63.8027V20.8989H62.725L54.2093 10.6517H54.7746V20.8989H53.4672Z"></path>
<path fill="#DBDBDB" d="M77.1325 21C76.202 21 75.3363 20.8539 74.5354 20.5618C73.7462 20.2584 73.0572 19.8371 72.4683 19.2978C71.8911 18.7472 71.4377 18.1124 71.1079 17.3933C70.7899 16.6629 70.6308 15.8652 70.6308 15C70.6308 14.1348 70.7899 13.3427 71.1079 12.6236C71.4377 11.8933 71.8911 11.2584 72.4683 10.7191C73.0572 10.1685 73.7462 9.74719 74.5354 9.45506C75.3245 9.15169 76.1902 9 77.1325 9C78.063 9 78.9228 9.15169 79.712 9.45506C80.5011 9.74719 81.1843 10.1629 81.7614 10.7022C82.3503 11.2416 82.8038 11.8764 83.1218 12.6067C83.4516 13.3371 83.6165 14.1348 83.6165 15C83.6165 15.8652 83.4516 16.6629 83.1218 17.3933C82.8038 18.1236 82.3503 18.7584 81.7614 19.2978C81.1843 19.8371 80.5011 20.2584 79.712 20.5618C78.9228 20.8539 78.063 21 77.1325 21ZM77.1325 19.8876C77.8745 19.8876 78.5577 19.7697 79.1819 19.5337C79.818 19.2865 80.3657 18.9438 80.825 18.5056C81.2962 18.0562 81.6613 17.5393 81.9204 16.9551C82.1795 16.3595 82.3091 15.7079 82.3091 15C82.3091 14.2921 82.1795 13.6461 81.9204 13.0618C81.6613 12.4663 81.2962 11.9494 80.825 11.5112C80.3657 11.0618 79.818 10.7191 79.1819 10.4831C78.5577 10.236 77.8745 10.1124 77.1325 10.1124C76.3905 10.1124 75.7014 10.236 75.0654 10.4831C74.4294 10.7191 73.8758 11.0618 73.4046 11.5112C72.9453 11.9494 72.5802 12.4663 72.3093 13.0618C72.0501 13.6461 71.9206 14.2921 71.9206 15C71.9206 15.6966 72.0501 16.3427 72.3093 16.9382C72.5802 17.5337 72.9453 18.0562 73.4046 18.5056C73.8758 18.9438 74.4294 19.2865 75.0654 19.5337C75.7014 19.7697 76.3905 19.8876 77.1325 19.8876Z"></path>
<path fill="#DBDBDB" d="M90.4338 20.8989V9.10112H95.0627C96.111 9.10112 97.0121 9.26404 97.7659 9.58989C98.5197 9.90449 99.0968 10.3652 99.4973 10.9719C99.9095 11.5674 100.116 12.2921 100.116 13.1461C100.116 13.9775 99.9095 14.6966 99.4973 15.3034C99.0968 15.8989 98.5197 16.3596 97.7659 16.6854C97.0121 17 96.111 17.1573 95.0627 17.1573H91.1582L91.7412 16.5843V20.8989H90.4338ZM98.8789 20.8989L95.6988 16.618H97.1122L100.31 20.8989H98.8789ZM91.7412 16.6854L91.1582 16.0955H95.0274C96.2641 16.0955 97.2005 15.8371 97.8365 15.3202C98.4843 14.8034 98.8083 14.0787 98.8083 13.1461C98.8083 12.2022 98.4843 11.4719 97.8365 10.9551C97.2005 10.4382 96.2641 10.1798 95.0274 10.1798H91.1582L91.7412 9.58989V16.6854Z"></path>
<path fill="#DBDBDB" d="M107.088 20.8989V9.10112H108.166L113.82 18.3034H113.254L118.855 9.10112H119.933V20.8989H118.678V10.9719H118.979L113.82 19.3989H113.201L108.007 10.9719H108.343V20.8989H107.088Z"></path>
<path fill="#DBDBDB" d="M125.87 20.8989L131.524 9.10112H132.814L138.467 20.8989H137.089L131.895 9.82584H132.425L127.231 20.8989H125.87ZM128.096 17.7472L128.485 16.736H135.676L136.064 17.7472H128.096Z"></path>
<path stroke-linecap="round" stroke-miterlimit="10" stroke-width="2" stroke="#DBDBDB" d="M27.6357 7.67076C27.6357 11.7443 27.6316 15.8164 27.6577 19.8899C27.6622 20.6037 27.6352 21.4838 26.9162 21.8562C25.4597 22.6104 24.1304 20.1313 23.5588 19.1398C22.2137 16.8048 21.684 14.152 21.9847 11.4733C22.2101 9.47292 22.8313 7.54256 23.6418 5.71085C24.2467 4.34422 24.9864 2.86758 26.1896 1.90694C27.5915 0.787185 29.5032 0.637611 30.9151 1.83466C32.427 3.11717 32.4721 5.43761 32.4531 7.28069C32.395 13.0513 32.546 18.832 32.4049 24.6022C32.3882 25.28 32.3598 25.966 32.1696 26.6166C31.4348 29.108 28.3271 29.9436 26.1621 28.9125C24.88 28.3019 23.8726 27.2304 22.9872 26.1147C20.1306 22.5118 18.4664 18.2541 16.2603 14.2784"></path>
<path stroke-linecap="round" stroke-miterlimit="10" stroke-width="2" stroke="#DBDBDB" d="M5.83155 22.6744C5.83155 18.6009 5.83561 14.5287 5.80947 10.4552C5.80496 9.74147 5.832 8.8613 6.551 8.48896C8.00746 7.73472 9.33681 10.2138 9.9084 11.2054C11.2535 13.5404 11.7832 16.1931 11.4825 18.8718C11.2571 20.8722 10.636 22.8026 9.82545 24.6343C9.22051 26.0009 8.48078 27.4776 7.27765 28.4382C5.87573 29.558 3.96398 29.7075 2.55214 28.5105C1.04023 27.2271 0.995151 24.9066 1.01408 23.0635C1.07223 17.2929 0.921223 11.5123 1.06232 5.74207C1.079 5.06422 1.10739 4.37818 1.29762 3.7276C2.03239 1.23622 5.14006 0.400604 7.30515 1.43171C8.58716 2.04228 9.59465 3.11385 10.48 4.22951C13.3366 7.83247 15.0008 12.0901 17.207 16.0658"></path>
</svg>
