<svg id="Layer_1" data-name="Layer 1" xmlns="http://www.w3.org/2000/svg" viewBox="0 0 346.17 68.11"><defs><style>.cls-1{fill:#fff;}.cls-2{fill:#ece81c;}</style></defs><path class="cls-1" d="M85.68,18.18,101,39.52V18.18h4.07V47h-3.6L86.11,25.72V47H82V18.18Z"/><path class="cls-1" d="M128.52,37.67H111.87A6.54,6.54,0,0,0,118.78,44c2.88,0,5.21-1.36,5.72-3.5h3.9c-.77,4.2-4.75,6.92-9.75,6.92a10.47,10.47,0,1,1,0-20.93,9.78,9.78,0,0,1,10,10A9.14,9.14,0,0,1,128.52,37.67Zm-4.15-2.89c-.21-3-2.67-5.11-5.93-5.11a6.34,6.34,0,0,0-6.4,5.11Z"/><path class="cls-1" d="M143.27,47l-5.34-7.21L132.59,47H128l7.66-10.38-7.2-9.73h4.66L138,33.46l4.83-6.55h4.66l-7.16,9.73L148,47Z"/><path class="cls-1" d="M155.56,30.54v9.27c0,2.8,1.7,3.87,4.15,3.87a5.63,5.63,0,0,0,1.44-.16V47a9.49,9.49,0,0,1-2.24.25c-4.37,0-7.25-2.47-7.25-7.38V30.54h-4V26.91h4V21.47h3.9v5.44h5.59v3.63Z"/><path class="cls-1" d="M198.23,33.63c0,8-6.14,13.8-14.24,13.8a14.62,14.62,0,0,1-14.87-14.87A14.58,14.58,0,0,1,184,17.76c6.36,0,12.29,4.25,13.6,9.19H193c-1.23-3.13-5.13-5.35-9-5.35a10.67,10.67,0,0,0-10.67,11,10.76,10.76,0,0,0,10.93,11,9.73,9.73,0,0,0,9.91-8.49h-9.78V31.28h13.68A13.39,13.39,0,0,1,198.23,33.63Z"/><path class="cls-1" d="M221.88,26.91V47H218V42.9a8.42,8.42,0,0,1-7.88,4.53,10.21,10.21,0,0,1-10-10.46,10.22,10.22,0,0,1,10-10.47A8.42,8.42,0,0,1,218,31V26.91ZM218,37a6.75,6.75,0,0,0-7.08-6.84,6.84,6.84,0,1,0,0,13.68A6.76,6.76,0,0,0,218,37Z"/><path class="cls-1" d="M231.37,30.54v9.27c0,2.8,1.7,3.87,4.15,3.87a5.63,5.63,0,0,0,1.44-.16V47a9.49,9.49,0,0,1-2.24.25c-4.37,0-7.25-2.47-7.25-7.38V30.54h-4V26.91h4V21.47h3.9v5.44H237v3.63Z"/><path class="cls-1" d="M257.43,37.67H240.78A6.53,6.53,0,0,0,247.69,44c2.88,0,5.21-1.36,5.72-3.5h3.89c-.76,4.2-4.74,6.92-9.74,6.92a10.47,10.47,0,1,1,0-20.93,9.78,9.78,0,0,1,10,10A11.26,11.26,0,0,1,257.43,37.67Zm-4.15-2.89c-.21-3-2.67-5.11-5.93-5.11a6.33,6.33,0,0,0-6.4,5.11Z"/><path class="cls-1" d="M286.33,22h-9.41V47h-4.11V22h-9.4V18.18h22.92Z"/><path class="cls-1" d="M303.15,37.67H286.5A6.54,6.54,0,0,0,293.41,44c2.88,0,5.21-1.36,5.72-3.5H303c-.77,4.2-4.75,6.92-9.75,6.92a10.47,10.47,0,1,1,0-20.93,9.78,9.78,0,0,1,10,10A9.14,9.14,0,0,1,303.15,37.67ZM299,34.78c-.21-3-2.67-5.11-5.93-5.11a6.34,6.34,0,0,0-6.4,5.11Z"/><path class="cls-1" d="M304.26,37A10.44,10.44,0,0,1,314.94,26.5c4.83,0,9,3.13,9.7,7.33h-4c-.6-2.14-3-3.7-5.72-3.7a6.84,6.84,0,1,0,0,13.68c2.71,0,5.21-1.57,5.76-3.88h3.94c-.59,4.41-4.83,7.5-9.7,7.5A10.39,10.39,0,0,1,304.26,37Z"/><path class="cls-1" d="M346.17,35.52V47h-3.9V35.94c0-3.51-2.2-5.81-5.64-5.81a5.42,5.42,0,0,0-5.72,5.81V47H327V18.18h3.94V30.41a7.19,7.19,0,0,1,6.61-3.91C342.86,26.5,346.17,30,346.17,35.52Z"/><path class="cls-2" d="M60.88,17a1.67,1.67,0,0,0-.61-.6,1.75,1.75,0,0,0-1.66,0l-12,6.72V9.73a1.6,1.6,0,0,0-.83-1.4L31.38.22a1.69,1.69,0,0,0-1.66,0L.84,16.44l-.07,0H.5v.21a.46.46,0,0,0-.07.07l-.08.09a1.5,1.5,0,0,0-.15.23l-.05.11a.75.75,0,0,0-.07.18,2.07,2.07,0,0,0-.06.26L0,50.28a1.6,1.6,0,0,0,.22.8,1.67,1.67,0,0,0,.41.45,1.73,1.73,0,0,0,.2.15,1.77,1.77,0,0,0,.31.12,1.72,1.72,0,0,0,1.35-.12l12-6.72V58.41a1.47,1.47,0,0,0,.22.79,1.55,1.55,0,0,0,.6.59L29.72,67.9a1.71,1.71,0,0,0,.81.21h.14a2.06,2.06,0,0,0,.26,0l.23-.07.14-.07,29-16.26h0a1.59,1.59,0,0,0,.78-1,1.63,1.63,0,0,0,.05-.36V17.84A1.55,1.55,0,0,0,60.88,17ZM43.34,28.74V42.17a1.6,1.6,0,0,0,.22.8,1.57,1.57,0,0,0,.61.59l11.95,6.72L32.21,63.71V35Zm0-18.09V25L32.21,31.27V4.41Zm14.44,10V47.49L46.65,41.24V26.88ZM14.45,26.88V41.24L3.31,47.49V20.63ZM28.9,63.71,17.76,57.46V43.1l11.13-6.25Zm-12-39.16L5,17.84,28.9,4.41V33.13L17.76,39.38V26A1.6,1.6,0,0,0,16.93,24.55Z"/></svg>