<?xml version="1.0" encoding="utf-8"?>
<!-- Generator: Adobe Illustrator 26.0.0, SVG Export Plug-In . SVG Version: 6.00 Build 0)  -->
<svg version="1.1" id="Layer_1" xmlns="http://www.w3.org/2000/svg" xmlns:xlink="http://www.w3.org/1999/xlink" x="0px" y="0px"
	 viewBox="0 0 1460 205.5" style="enable-background:new 0 0 1460 205.5;" xml:space="preserve">
<style type="text/css">
	.st0{fill:#051533;}
	.st1{fill:#0080FF;}
</style>
<g>
	<g>
		<g>
			<path class="st0" d="M492.6,30h30.8c1,0,1.9,0.5,2.5,1.3l49.8,72.4c1.7,2.4,5.5,1.2,5.5-1.7V33c0-1.7,1.3-3,3-3h32.4
				c1.7,0,3,1.3,3,3v140.4c0,1.7-1.3,3-3,3H588c-1,0-1.9-0.5-2.5-1.3l-52-74.9c-1.7-2.4-5.5-1.2-5.5,1.7v71.5c0,1.7-1.3,3-3,3h-32.4
				c-1.7,0-3-1.3-3-3V33C489.6,31.3,491,30,492.6,30z"/>
			<path class="st0" d="M733.9,179.9c-11,0-21.1-1.9-30.4-5.8c-9.3-3.9-17.3-9.2-24.1-16c-6.8-6.8-12.1-14.9-15.9-24.4
				c-3.8-9.4-5.7-19.7-5.7-30.8c0-11.1,1.9-21.4,5.7-30.8c3.8-9.4,9.1-17.6,15.9-24.4s14.8-12.1,24.1-15.9
				c9.3-3.8,19.4-5.7,30.4-5.7s21.1,1.9,30.5,5.7c9.4,3.8,17.4,9.1,24.1,15.9c6.7,6.8,12,14.9,15.8,24.4c3.8,9.4,5.7,19.7,5.7,30.8
				c0,11.1-1.9,21.4-5.7,30.8c-3.8,9.4-9.1,17.6-15.8,24.4c-6.7,6.8-14.8,12.1-24.1,16C755,177.9,744.8,179.9,733.9,179.9z
				 M733.9,143.4c5.7,0,10.8-1.1,15.3-3.2c4.5-2.1,8.2-5,11.3-8.7c3.1-3.7,5.4-8,7-12.9c1.6-5,2.4-10.2,2.4-15.8
				c0-5.6-0.8-10.8-2.4-15.8c-1.6-5-4-9.3-7-12.9c-3.1-3.7-6.8-6.5-11.3-8.7c-4.5-2.1-9.5-3.2-15.3-3.2c-5.7,0-10.8,1.1-15.3,3.2
				c-4.5,2.1-8.2,5-11.3,8.7c-3.1,3.7-5.4,8-7,12.9c-1.6,5-2.4,10.2-2.4,15.8c0,5.6,0.8,10.8,2.4,15.8c1.6,5,4,9.3,7,12.9
				c3.1,3.7,6.8,6.5,11.3,8.7C723.1,142.4,728.2,143.4,733.9,143.4z"/>
			<path class="st0" d="M850.3,30h32.8c1.7,0,3,1.3,3,3v82.8c0,8,1.9,14.6,5.6,19.8c3.7,5.1,9.9,7.7,18.5,7.7
				c8.6,0,14.8-2.6,18.4-7.8c3.7-5.2,5.5-11.7,5.5-19.6V33c0-1.7,1.3-3,3-3h33.3c1.7,0,3,1.3,3,3v86.3c0,9.4-1.5,17.8-4.6,25.3
				c-3.1,7.5-7.4,13.9-13.1,19.2c-5.6,5.3-12.3,9.3-20,12.1c-7.7,2.8-16.1,4.2-25.3,4.2c-9.2,0-17.7-1.4-25.5-4.2
				c-7.8-2.8-14.4-6.8-20.1-12c-5.6-5.2-10-11.6-13.1-19.1c-3.1-7.5-4.6-16.1-4.6-25.6V33C847.3,31.3,848.7,30,850.3,30z"/>
			<path class="st0" d="M1025.9,132.5c1.1-1.3,3-1.4,4.3-0.3c3.7,3.3,8.3,6.3,13.7,9.1c6.6,3.4,13.8,5,21.7,5c1.9,0,3.9-0.2,5.9-0.5
				c2-0.4,3.9-1,5.5-1.9c1.6-0.9,2.9-2,4-3.5c1-1.5,1.5-3.4,1.5-5.7c0-3.8-1.9-6.9-5.8-9.4c-3.9-2.5-9.5-5-17-7.5l-8.1-2.6
				c-4.5-1.5-9.1-3.4-13.7-5.7c-4.6-2.3-8.7-5.2-12.4-8.4c-3.7-3.3-6.6-7.2-8.9-11.6c-2.3-4.5-3.4-9.7-3.4-15.7
				c0-6.7,1.2-13,3.7-18.8c2.5-5.8,6.1-10.8,10.9-15.1c4.8-4.3,10.6-7.7,17.7-10.1c7-2.4,15.1-3.6,24.4-3.6c7.2,0,13.7,0.7,19.5,2
				c5.9,1.3,11,2.9,15.4,4.8c4.4,1.9,8.1,4,11.2,6.1l4.9,3.5c1.4,1,1.7,3,0.6,4.3L1105,67.7c-1,1.2-2.7,1.5-4,0.6
				c-4.4-3.1-9-5.6-13.8-7.7c-5.6-2.4-11.3-3.6-17.1-3.6c-1.9,0-3.8,0.2-5.7,0.7c-1.9,0.4-3.6,1.1-5.2,2c-1.5,0.9-2.8,2-3.7,3.4
				c-1,1.4-1.4,3.1-1.4,5.2c0,2.2,0.5,4.1,1.6,5.7c1.1,1.6,2.6,3,4.5,4.2c1.9,1.2,4.2,2.2,6.9,3.2c2.7,1,5.6,1.9,8.7,3l7,2.2
				c5,1.6,10,3.5,15.1,5.6c5.1,2.1,9.7,5,13.8,8.6c4.1,3.6,7.5,8,10.1,13.4c2.6,5.3,4,11.9,4,19.6c0,6.7-1.6,12.9-4.7,18.7
				c-3.1,5.7-7.4,10.6-12.7,14.7c-5.3,4.1-11.6,7.3-18.9,9.5c-7.2,2.3-15,3.4-23.2,3.4c-14.6,0-26.9-1.9-36.8-5.8
				c-8.9-3.5-16.5-8.1-23-13.7c-1.2-1.1-1.4-2.9-0.3-4.2L1025.9,132.5z"/>
		</g>
		<g>
			<path class="st1" d="M1163.8,33c0-1.7,1.3-3,3-3h56.7c7.9,0,15,1.1,21.4,3.2c6.4,2.1,11.8,5.2,16.3,9.2c4.5,4,8,9.1,10.5,15.1
				c2.5,6.1,3.7,13.1,3.7,21c0,7.5-1.3,14.2-3.8,20.3c-2.6,6.1-6.1,11.3-10.5,15.6c-4.5,4.3-9.8,7.6-16,9.9
				c-6.2,2.3-13.1,3.4-20.5,3.4h-19.8c-1.7,0-3,1.3-3,3v42.7c0,1.7-1.3,3-3,3h-32c-1.7,0-3-1.3-3-3V33z M1220.2,97.1
				c5.3,0,9.4-1.7,12.5-5c3.1-3.4,4.6-7.7,4.6-12.9c0-5.6-1.5-10-4.4-13.4c-2.9-3.4-7.2-5-12.9-5h-15.2c-1.7,0-3,1.3-3,3v30.4
				c0,1.7,1.3,3,3,3H1220.2z"/>
			<path class="st1" d="M1382.8,179.9c-11,0-21.1-1.9-30.4-5.8c-9.3-3.9-17.3-9.2-24.1-16c-6.8-6.8-12.1-14.9-15.9-24.4
				c-3.8-9.4-5.7-19.7-5.7-30.8c0-11.1,1.9-21.4,5.7-30.8c3.8-9.4,9.1-17.6,15.9-24.4c6.8-6.8,14.8-12.1,24.1-15.9
				c9.3-3.8,19.4-5.7,30.4-5.7s21.1,1.9,30.5,5.7c9.4,3.8,17.4,9.1,24.1,15.9c6.7,6.8,12,14.9,15.8,24.4c3.8,9.4,5.7,19.7,5.7,30.8
				c0,11.1-1.9,21.4-5.7,30.8c-3.8,9.4-9.1,17.6-15.8,24.4c-6.7,6.8-14.8,12.1-24.1,16C1404,177.9,1393.8,179.9,1382.8,179.9z
				 M1382.8,143.4c5.7,0,10.8-1.1,15.3-3.2c4.5-2.1,8.2-5,11.3-8.7c3.1-3.7,5.4-8,7-12.9c1.6-5,2.4-10.2,2.4-15.8
				c0-5.6-0.8-10.8-2.4-15.8c-1.6-5-4-9.3-7-12.9c-3.1-3.7-6.8-6.5-11.3-8.7c-4.5-2.1-9.5-3.2-15.3-3.2c-5.7,0-10.8,1.1-15.3,3.2
				c-4.5,2.1-8.2,5-11.3,8.7c-3.1,3.7-5.4,8-7,12.9c-1.6,5-2.4,10.2-2.4,15.8c0,5.6,0.8,10.8,2.4,15.8c1.6,5,4,9.3,7,12.9
				c3.1,3.7,6.8,6.5,11.3,8.7C1372,142.4,1377.1,143.4,1382.8,143.4z"/>
		</g>
	</g>
	<g>
		<path class="st0" d="M31.9,176l46.7-42.4c-13.7-8.2-21.5-25.2-15.5-43.3c3-9.2,13.2-19.1,22.5-22c19.1-6,37,3.4,44.3,18.9
			L181.8,40c-1.3-1.7-2.7-3.4-4.2-5C140-6.5,75.7-9.6,34.3,27.9c-41.5,37.6-44.6,101.9-7,143.3C28.7,172.9,30.3,174.5,31.9,176z"/>
		<path class="st1" d="M383.1,34.3C349.2-3.2,293.5-9.4,252.4,17.5v0c-2.1,1.4-4.2,3-6.1,4.7L101.4,153.6L57.3,194
			c33.4,16.5,74.4,13.7,105.5-9.4c0,0,15.2-13.7,34.8-31.4l83.9-75.6c1.3-1.2,2.1-1.9,2.2-2c15.3-13.9,39.5-12.1,52.5,4.5
			c11,14,10,34.3-2.3,47.1c-14.6,15.2-38.8,14.6-52.7-0.7c-1.4-1.6-2.7-3.3-3.8-5l-48.8,44.2c1.3,1.6,2.6,3.2,4,4.7
			c37.6,41.5,101.9,44.6,143.3,7C417.6,140,420.7,75.7,383.1,34.3z"/>
	</g>
</g>
</svg>
