<?xml version="1.0" encoding="utf-8"?>
<svg id="Artwork" xmlns="http://www.w3.org/2000/svg" viewBox="0 0 446.11 187.23"><g><path d="M103.4,127.93h32.07v-35.25c-11.08,1.06-21.81,1.89-32.07,2.48v32.78h0Z" style="fill:#ff7814;"></path><path d="M166.01,127.93h39.97l-30.3-39.5c-11.08,1.41-22.05,2.59-32.54,3.54l22.87,35.96Z" style="fill:#ff7814;"></path><path d="M414.31,36.2l11.32-22.05c-8.49,5.19-17.45,10.02-26.64,14.5,5.66,1.18,10.96,4.01,15.33,7.55" style="fill:#00afff;"></path><path d="M401.7,52.59l-8.14-2.48c-5.54-1.77-14.27-4.6-14.27-11.79v-.59c-10.61,4.6-21.58,8.85-32.77,12.86,2.71,17.21,15.09,21.81,32.77,26.88,6.84,2,19.45,5.07,19.45,14.03s-8.02,12.38-15.56,12.38c-10.96,0-20.51-5.78-28.53-12.73l-13.79,25.82c12.61,8.84,27.83,14.03,43.39,14.03,12.5,0,25.35-3.42,35.02-11.67,9.79-8.37,12.74-20.98,12.74-33.25,.11-19.69-13.09-28.41-30.3-33.48" style="fill:#ff7814;"></path><path d="M304.07,64.03c0,21.22-15.68,36.79-34.9,36.79-14.27,0-26.64-8.73-32.07-21.93-11.2,2.12-22.4,3.89-33.37,5.54,8.01,28.65,33.13,47.52,65.43,47.52,39.61,0,68.27-28.18,68.27-68.03,0-3.42-.24-6.72-.82-9.9-10.73,3.54-21.57,6.84-32.54,9.78v.24h0Z" style="fill:#ff7814;"></path><path d="M0,97.75v30.18H32.07v-30.07c-20.16,.24-32.07-.12-32.07-.12" style="fill:#ff7814;"></path><path d="M194.19,42.09c0-26.29-18.51-37.96-42.92-37.96h-47.87V81.24c21.93-1.42,46.34-3.54,71.92-6.72,12.26-5.78,18.86-18.27,18.86-32.42m-33.37,1.89c0,13.44-11.79,15.45-22.28,15.45h-3.06V27.49h3.06c10.49,0,22.28,2,22.28,15.45v1.06" style="fill:#00afff;"></path><path d="M388.49,.83c-22.87,0-39.85,14.03-42.21,35.84,24.64-8.61,48.1-18.74,69.56-30.77-8.96-3.18-18.87-5.07-27.35-5.07" style="fill:#00afff;"></path><path d="M269.29,0c-35.49,0-68.27,26.18-68.27,63.55l.59,7.31c10.85-1.65,21.81-3.42,32.78-5.42v-2.94c0-16.98,15.68-32.54,34.9-32.54,14.5,0,26.88,8.84,32.19,20.51,10.73-2.83,21.34-6.01,31.84-9.43C323.3,16.17,297.12,.01,269.3,.01" style="fill:#00afff;"></path><path d="M93.97,44.69c0-28.3-18.28-40.56-44.8-40.56H0V83.72s28.65,.94,72.51-.95c13.91-5.66,21.46-17.92,21.46-38.08m-33.37,.94c0,15.09-11.44,15.09-23.11,15.09h-5.42V28.77h5.42c12.5,0,23.11,.12,23.11,15.68v1.18" style="fill:#00afff;"></path></g><g><path d="M8.77,162.62H.05v-4.42H22.56v4.42H13.84v24.04h-5.06v-24.04h-.01Z" style="fill:#00afff;"></path><path d="M35.63,166.8c1.26,0,2.34,.22,3.24,.66s1.63,1.02,2.21,1.75c.58,.72,1,1.55,1.27,2.49s.4,1.9,.4,2.89v12.06h-4.82v-10.61c0-.56-.04-1.15-.12-1.75s-.25-1.15-.5-1.65-.62-.9-1.08-1.23c-.47-.32-1.09-.48-1.87-.48s-1.45,.15-2.01,.44c-.56,.29-1.03,.69-1.41,1.19-.38,.5-.66,1.05-.84,1.67-.19,.62-.28,1.25-.28,1.89v10.53h-4.82v-30.39h4.82v13.79h.08c.19-.4,.46-.8,.82-1.19s.78-.74,1.27-1.04,1.03-.56,1.65-.74c.62-.19,1.29-.28,2.01-.28h-.02Z" style="fill:#00afff;"></path><path d="M66.78,177.26v.64c0,.21,0,.43-.04,.64h-14.67c.05,.7,.23,1.33,.54,1.91s.72,1.07,1.23,1.49,1.09,.74,1.73,.98c.64,.24,1.31,.36,2.01,.36,1.21,0,2.22-.22,3.05-.66s1.51-1.05,2.05-1.83l3.22,2.57c-1.9,2.57-4.66,3.86-8.28,3.86-1.5,0-2.88-.23-4.14-.7s-2.35-1.13-3.28-1.99c-.92-.86-1.65-1.91-2.17-3.16s-.78-2.66-.78-4.24,.26-2.97,.78-4.24,1.24-2.36,2.15-3.26c.91-.9,1.99-1.59,3.24-2.09s2.59-.74,4.04-.74c1.34,0,2.58,.22,3.72,.66s2.12,1.1,2.95,1.97,1.48,1.96,1.95,3.26c.47,1.3,.7,2.82,.7,4.56h0Zm-4.82-2.16c0-.62-.09-1.21-.26-1.77s-.45-1.06-.82-1.49c-.38-.43-.85-.77-1.43-1.02-.58-.25-1.25-.38-2.03-.38-1.45,0-2.67,.44-3.68,1.31-1,.87-1.56,1.99-1.67,3.36h9.89Z" style="fill:#00afff;"></path><path d="M81.74,158.2h9.29c1.63,0,3.11,.15,4.42,.44,1.31,.3,2.44,.78,3.38,1.45s1.66,1.53,2.17,2.57c.51,1.05,.76,2.31,.76,3.78,0,1.58-.29,2.91-.88,3.98-.59,1.07-1.39,1.94-2.39,2.59-1,.66-2.18,1.13-3.52,1.43-1.34,.29-2.76,.44-4.26,.44h-3.9v11.78h-5.07v-28.46h0Zm8.6,12.42c.83,0,1.62-.06,2.37-.18s1.42-.33,2.01-.64,1.06-.73,1.41-1.27c.35-.54,.52-1.23,.52-2.09s-.17-1.51-.52-2.03-.81-.93-1.39-1.23c-.58-.29-1.23-.49-1.97-.58s-1.5-.14-2.27-.14h-3.7v8.16h3.54Z" style="fill:#00afff;"></path><path d="M104.17,167.37h4.62v3.22h.08c.54-1.13,1.29-2.04,2.25-2.73,.96-.7,2.09-1.05,3.38-1.05,.19,0,.39,0,.6,.02,.21,0,.4,.05,.56,.1v4.42c-.32-.08-.6-.13-.82-.16-.23-.03-.45-.04-.66-.04-1.1,0-1.98,.2-2.65,.6-.67,.4-1.19,.88-1.57,1.45-.38,.56-.63,1.14-.76,1.73-.13,.59-.2,1.06-.2,1.41v10.33h-4.82v-19.3h0Z" style="fill:#00afff;"></path><path d="M116.95,176.94c0-1.53,.27-2.91,.82-4.16s1.29-2.31,2.23-3.2c.94-.88,2.05-1.57,3.34-2.05s2.65-.72,4.1-.72,2.81,.24,4.1,.72,2.4,1.17,3.34,2.05,1.68,1.95,2.23,3.2,.82,2.63,.82,4.16-.27,2.92-.82,4.18-1.29,2.34-2.23,3.24c-.94,.9-2.05,1.6-3.34,2.11s-2.65,.76-4.1,.76-2.81-.26-4.1-.76c-1.29-.51-2.4-1.21-3.34-2.11s-1.68-1.98-2.23-3.24c-.55-1.26-.82-2.65-.82-4.18Zm4.9,0c0,.75,.11,1.5,.34,2.25s.57,1.42,1.03,2.01c.46,.59,1.03,1.07,1.73,1.45,.7,.38,1.53,.56,2.49,.56s1.8-.19,2.49-.56c.7-.38,1.27-.86,1.73-1.45,.46-.59,.8-1.26,1.02-2.01,.23-.75,.34-1.5,.34-2.25s-.11-1.49-.34-2.23c-.23-.74-.57-1.4-1.02-1.99-.46-.59-1.03-1.07-1.73-1.43-.7-.36-1.53-.54-2.49-.54s-1.8,.18-2.49,.54c-.7,.36-1.27,.84-1.73,1.43-.46,.59-.8,1.25-1.03,1.99s-.34,1.48-.34,2.23Z" style="fill:#00afff;"></path><path d="M143.36,171.23h-3.66v-3.86h3.66v-2.85c0-1.15,.13-2.26,.38-3.32,.25-1.06,.68-1.99,1.29-2.79,.6-.8,1.4-1.44,2.39-1.91s2.24-.7,3.74-.7c.54,0,.99,.02,1.35,.06s.73,.11,1.11,.22l-.32,4.1c-.27-.08-.56-.15-.86-.2-.31-.05-.64-.08-.99-.08-.7,0-1.26,.13-1.69,.4-.43,.27-.76,.62-.98,1.04-.23,.43-.38,.9-.46,1.41-.08,.51-.12,1-.12,1.49v3.14h4.46v3.86h-4.46v15.44h-4.82v-15.44h-.02Zm12.14-10.42c0-.78,.29-1.45,.86-2.03,.58-.58,1.31-.86,2.19-.86s1.63,.28,2.23,.82c.6,.55,.9,1.24,.9,2.07s-.3,1.52-.9,2.07c-.6,.55-1.35,.82-2.23,.82s-1.61-.29-2.19-.86c-.58-.58-.86-1.25-.86-2.03h0Zm.68,6.55h4.82v19.3h-4.82v-19.3Z" style="fill:#00afff;"></path><path d="M163.66,171.23v-3.86h3.38v-5.59h4.74v5.59h4.82v3.86h-4.82v8.96c0,.86,.15,1.57,.46,2.13,.31,.56,1,.84,2.07,.84,.32,0,.67-.03,1.04-.1s.71-.17,1.01-.3l.16,3.78c-.43,.16-.94,.29-1.53,.38-.59,.09-1.15,.14-1.69,.14-1.29,0-2.33-.18-3.14-.54s-1.44-.86-1.91-1.49-.79-1.35-.96-2.17c-.17-.82-.26-1.69-.26-2.63v-9h-3.37Z" style="fill:#00afff;"></path><path d="M190.4,158.2h9.29c1.63,0,3.11,.15,4.42,.44,1.31,.3,2.44,.78,3.38,1.45s1.66,1.53,2.17,2.57c.51,1.05,.76,2.31,.76,3.78,0,1.58-.29,2.91-.88,3.98-.59,1.07-1.39,1.94-2.39,2.59-1,.66-2.18,1.13-3.52,1.43-1.34,.29-2.76,.44-4.26,.44h-3.9v11.78h-5.07v-28.46h0Zm8.6,12.42c.83,0,1.62-.06,2.37-.18s1.42-.33,2.01-.64,1.06-.73,1.41-1.27c.35-.54,.52-1.23,.52-2.09s-.17-1.51-.52-2.03c-.35-.52-.81-.93-1.39-1.23-.58-.29-1.23-.49-1.97-.58s-1.5-.14-2.27-.14h-3.7v8.16h3.54Z" style="fill:#00afff;"></path><path d="M212.83,167.37h4.62v3.22h.08c.54-1.13,1.29-2.04,2.25-2.73,.96-.7,2.09-1.05,3.38-1.05,.19,0,.39,0,.6,.02,.21,0,.4,.05,.56,.1v4.42c-.32-.08-.6-.13-.82-.16-.23-.03-.45-.04-.66-.04-1.1,0-1.98,.2-2.65,.6-.67,.4-1.19,.88-1.57,1.45-.38,.56-.63,1.14-.76,1.73s-.2,1.06-.2,1.41v10.33h-4.82v-19.3h0Z" style="fill:#00afff;"></path><path d="M225.61,176.94c0-1.53,.27-2.91,.82-4.16,.55-1.25,1.29-2.31,2.23-3.2,.94-.88,2.05-1.57,3.34-2.05s2.65-.72,4.1-.72,2.81,.24,4.1,.72,2.4,1.17,3.34,2.05,1.68,1.95,2.23,3.2c.55,1.25,.82,2.63,.82,4.16s-.27,2.92-.82,4.18c-.55,1.26-1.29,2.34-2.23,3.24-.94,.9-2.05,1.6-3.34,2.11s-2.65,.76-4.1,.76-2.81-.26-4.1-.76c-1.29-.51-2.4-1.21-3.34-2.11s-1.68-1.98-2.23-3.24c-.55-1.26-.82-2.65-.82-4.18Zm4.9,0c0,.75,.11,1.5,.34,2.25s.57,1.42,1.03,2.01,1.03,1.07,1.73,1.45c.7,.38,1.53,.56,2.49,.56s1.8-.19,2.49-.56c.7-.38,1.27-.86,1.73-1.45,.46-.59,.8-1.26,1.02-2.01,.23-.75,.34-1.5,.34-2.25s-.11-1.49-.34-2.23c-.23-.74-.57-1.4-1.02-1.99-.46-.59-1.03-1.07-1.73-1.43-.7-.36-1.53-.54-2.49-.54s-1.8,.18-2.49,.54c-.7,.36-1.27,.84-1.73,1.43-.46,.59-.8,1.25-1.03,1.99s-.34,1.48-.34,2.23Z" style="fill:#00afff;"></path><path d="M252.02,171.23h-3.66v-3.86h3.66v-2.85c0-1.15,.13-2.26,.38-3.32,.25-1.06,.68-1.99,1.29-2.79,.6-.8,1.4-1.44,2.39-1.91,.99-.47,2.24-.7,3.74-.7,.54,0,.99,.02,1.35,.06,.36,.04,.73,.11,1.11,.22l-.32,4.1c-.27-.08-.56-.15-.86-.2-.31-.05-.64-.08-.99-.08-.7,0-1.26,.13-1.69,.4-.43,.27-.76,.62-.98,1.04-.23,.43-.38,.9-.46,1.41-.08,.51-.12,1-.12,1.49v3.14h4.46v3.86h-4.46v15.44h-4.82v-15.44h-.02Z" style="fill:#00afff;"></path><path d="M282.69,177.26v.64c0,.21-.01,.43-.04,.64h-14.67c.05,.7,.23,1.33,.54,1.91s.72,1.07,1.23,1.49,1.09,.74,1.73,.98c.64,.24,1.31,.36,2.01,.36,1.21,0,2.22-.22,3.05-.66s1.51-1.05,2.05-1.83l3.22,2.57c-1.9,2.57-4.66,3.86-8.28,3.86-1.5,0-2.88-.23-4.14-.7s-2.35-1.13-3.28-1.99c-.92-.86-1.65-1.91-2.17-3.16-.52-1.25-.78-2.66-.78-4.24s.26-2.97,.78-4.24,1.24-2.36,2.15-3.26,1.99-1.59,3.24-2.09,2.59-.74,4.04-.74c1.34,0,2.58,.22,3.72,.66s2.12,1.1,2.95,1.97c.83,.87,1.48,1.96,1.95,3.26,.47,1.3,.7,2.82,.7,4.56h0Zm-4.82-2.16c0-.62-.09-1.21-.26-1.77s-.45-1.06-.82-1.49c-.38-.43-.85-.77-1.43-1.02s-1.25-.38-2.03-.38c-1.45,0-2.67,.44-3.68,1.31-1,.87-1.56,1.99-1.67,3.36h9.89Z" style="fill:#00afff;"></path><path d="M297.93,172.51c-.43-.56-1.02-1.05-1.77-1.47s-1.57-.62-2.45-.62c-.78,0-1.49,.16-2.13,.48s-.96,.86-.96,1.61,.36,1.28,1.07,1.59c.71,.31,1.75,.62,3.12,.94,.72,.16,1.45,.38,2.19,.64,.74,.27,1.41,.62,2.01,1.07,.6,.44,1.09,.99,1.47,1.65,.38,.66,.56,1.45,.56,2.39,0,1.18-.22,2.18-.66,2.99-.44,.82-1.03,1.48-1.77,1.99-.74,.51-1.59,.88-2.57,1.11s-1.99,.34-3.04,.34c-1.5,0-2.96-.28-4.38-.82-1.42-.55-2.6-1.33-3.54-2.35l3.18-2.98c.54,.7,1.23,1.27,2.09,1.73,.86,.46,1.81,.68,2.85,.68,.35,0,.7-.04,1.07-.12,.36-.08,.7-.21,1-.38,.31-.17,.56-.41,.74-.7,.19-.29,.28-.66,.28-1.09,0-.8-.37-1.38-1.11-1.73-.74-.35-1.84-.7-3.32-1.05-.72-.16-1.43-.37-2.11-.62s-1.29-.59-1.83-1c-.54-.42-.96-.93-1.29-1.55-.32-.62-.48-1.38-.48-2.29,0-1.07,.22-2,.66-2.77,.44-.78,1.03-1.41,1.75-1.91s1.54-.86,2.45-1.11,1.85-.36,2.81-.36c1.39,0,2.75,.24,4.08,.72s2.38,1.22,3.16,2.21l-3.14,2.77h.01Z" style="fill:#00afff;"></path><path d="M315.78,172.51c-.43-.56-1.02-1.05-1.77-1.47s-1.57-.62-2.45-.62c-.78,0-1.49,.16-2.13,.48s-.96,.86-.96,1.61,.36,1.28,1.07,1.59c.71,.31,1.75,.62,3.12,.94,.72,.16,1.45,.38,2.19,.64,.74,.27,1.41,.62,2.01,1.07,.6,.44,1.09,.99,1.47,1.65,.38,.66,.56,1.45,.56,2.39,0,1.18-.22,2.18-.66,2.99-.44,.82-1.03,1.48-1.77,1.99-.74,.51-1.59,.88-2.57,1.11s-1.99,.34-3.04,.34c-1.5,0-2.96-.28-4.38-.82-1.42-.55-2.6-1.33-3.54-2.35l3.18-2.98c.54,.7,1.23,1.27,2.09,1.73,.86,.46,1.81,.68,2.85,.68,.35,0,.7-.04,1.07-.12,.36-.08,.7-.21,1-.38,.31-.17,.56-.41,.74-.7,.19-.29,.28-.66,.28-1.09,0-.8-.37-1.38-1.11-1.73-.74-.35-1.84-.7-3.32-1.05-.72-.16-1.43-.37-2.11-.62s-1.29-.59-1.83-1c-.54-.42-.96-.93-1.29-1.55-.32-.62-.48-1.38-.48-2.29,0-1.07,.22-2,.66-2.77,.44-.78,1.03-1.41,1.75-1.91s1.54-.86,2.45-1.11,1.85-.36,2.81-.36c1.39,0,2.75,.24,4.08,.72s2.38,1.22,3.16,2.21l-3.14,2.77h.01Z" style="fill:#00afff;"></path><path d="M322.45,160.81c0-.78,.29-1.45,.86-2.03,.58-.58,1.31-.86,2.19-.86s1.63,.28,2.23,.82c.6,.55,.9,1.24,.9,2.07s-.3,1.52-.9,2.07-1.35,.82-2.23,.82-1.62-.29-2.19-.86c-.58-.58-.86-1.25-.86-2.03h0Zm.68,6.55h4.82v19.3h-4.82v-19.3Z" style="fill:#00afff;"></path><path d="M332.7,176.94c0-1.53,.27-2.91,.82-4.16,.55-1.25,1.29-2.31,2.23-3.2,.94-.88,2.05-1.57,3.34-2.05s2.65-.72,4.1-.72,2.81,.24,4.1,.72,2.4,1.17,3.34,2.05,1.68,1.95,2.23,3.2c.55,1.25,.82,2.63,.82,4.16s-.27,2.92-.82,4.18c-.55,1.26-1.29,2.34-2.23,3.24-.94,.9-2.05,1.6-3.34,2.11s-2.65,.76-4.1,.76-2.81-.26-4.1-.76c-1.29-.51-2.4-1.21-3.34-2.11s-1.68-1.98-2.23-3.24c-.55-1.26-.82-2.65-.82-4.18Zm4.9,0c0,.75,.11,1.5,.34,2.25s.57,1.42,1.03,2.01,1.03,1.07,1.73,1.45c.7,.38,1.53,.56,2.49,.56s1.8-.19,2.49-.56c.7-.38,1.27-.86,1.73-1.45,.46-.59,.8-1.26,1.02-2.01,.23-.75,.34-1.5,.34-2.25s-.11-1.49-.34-2.23c-.23-.74-.57-1.4-1.02-1.99-.46-.59-1.03-1.07-1.73-1.43-.7-.36-1.53-.54-2.49-.54s-1.8,.18-2.49,.54c-.7,.36-1.27,.84-1.73,1.43-.46,.59-.8,1.25-1.03,1.99s-.34,1.48-.34,2.23Z" style="fill:#00afff;"></path><path d="M358.35,167.37h4.58v3.1h.08c.43-.96,1.17-1.82,2.23-2.55,1.06-.74,2.31-1.11,3.76-1.11,1.26,0,2.34,.22,3.24,.66s1.63,1.02,2.21,1.75,1,1.55,1.27,2.49,.4,1.9,.4,2.89v12.06h-4.82v-10.69c0-.56-.04-1.15-.12-1.77-.08-.62-.25-1.17-.52-1.67s-.64-.9-1.11-1.23-1.09-.48-1.87-.48-1.45,.15-2.01,.46c-.56,.31-1.03,.7-1.39,1.19-.36,.48-.64,1.04-.82,1.67-.19,.63-.28,1.27-.28,1.91v10.61h-4.82v-19.3h0Z" style="fill:#00afff;"></path><path d="M393.72,184.21h-.12c-.48,.86-1.26,1.56-2.33,2.11-1.07,.55-2.29,.82-3.66,.82-.78,0-1.59-.1-2.43-.3s-1.62-.54-2.33-1c-.71-.47-1.3-1.09-1.77-1.85-.47-.76-.7-1.71-.7-2.83,0-1.45,.41-2.6,1.23-3.46s1.87-1.51,3.16-1.97,2.71-.76,4.28-.9c1.57-.15,3.1-.22,4.6-.22v-.48c0-1.21-.44-2.1-1.31-2.67-.87-.58-1.91-.86-3.12-.86-1.02,0-2,.21-2.94,.64s-1.71,.95-2.33,1.57l-2.49-2.93c1.1-1.02,2.36-1.78,3.8-2.29,1.43-.51,2.89-.76,4.36-.76,1.71,0,3.13,.24,4.24,.72s1.99,1.11,2.63,1.89,1.09,1.65,1.35,2.61,.38,1.93,.38,2.89v11.74h-4.5v-2.47Zm-.08-6.35h-1.09c-.78,0-1.59,.03-2.45,.1s-1.65,.21-2.37,.44-1.33,.55-1.81,.96c-.48,.42-.72,.98-.72,1.71,0,.46,.1,.84,.3,1.15s.46,.56,.78,.74c.32,.19,.68,.32,1.09,.4s.8,.12,1.21,.12c1.66,0,2.92-.44,3.78-1.33s1.29-2.09,1.29-3.62v-.68h0Z" style="fill:#00afff;"></path><path d="M403.93,156.27h4.82v30.39h-4.82v-30.39Z" style="fill:#00afff;"></path><path d="M425.2,172.51c-.43-.56-1.02-1.05-1.77-1.47s-1.57-.62-2.45-.62c-.78,0-1.49,.16-2.13,.48s-.96,.86-.96,1.61,.36,1.28,1.07,1.59c.71,.31,1.75,.62,3.12,.94,.72,.16,1.45,.38,2.19,.64,.74,.27,1.41,.62,2.01,1.07,.6,.44,1.09,.99,1.47,1.65,.38,.66,.56,1.45,.56,2.39,0,1.18-.22,2.18-.66,2.99-.44,.82-1.03,1.48-1.77,1.99-.74,.51-1.59,.88-2.57,1.11s-1.99,.34-3.04,.34c-1.5,0-2.96-.28-4.38-.82-1.42-.55-2.6-1.33-3.54-2.35l3.18-2.98c.54,.7,1.23,1.27,2.09,1.73,.86,.46,1.81,.68,2.85,.68,.35,0,.7-.04,1.07-.12,.36-.08,.7-.21,1-.38,.31-.17,.56-.41,.74-.7,.19-.29,.28-.66,.28-1.09,0-.8-.37-1.38-1.11-1.73-.74-.35-1.84-.7-3.32-1.05-.72-.16-1.43-.37-2.11-.62s-1.29-.59-1.83-1c-.54-.42-.96-.93-1.29-1.55-.32-.62-.48-1.38-.48-2.29,0-1.07,.22-2,.66-2.77,.44-.78,1.03-1.41,1.75-1.91s1.54-.86,2.45-1.11,1.85-.36,2.81-.36c1.39,0,2.75,.24,4.08,.72s2.38,1.22,3.16,2.21l-3.14,2.77h.01Z" style="fill:#00afff;"></path><path d="M432.17,157.59h-2.54v-1.29h6.56v1.29h-2.54v7.01h-1.48v-7.01Z" style="fill:#00afff;"></path><path d="M437.15,156.3h2.31l2.16,5.89h.04l2.13-5.89h2.32v8.3h-1.46v-6.67h-.02l-2.52,6.67h-1.03l-2.48-6.67h-.02v6.67h-1.41v-8.3h-.02Z" style="fill:#00afff;"></path></g></svg>
